<svg width="62" height="60" viewBox="0 0 62 60" fill="none" xmlns="http://www.w3.org/2000/svg">
<g clip-path="url(#clip0_204_783)">
<g clip-path="url(#clip1_204_783)">
<g clip-path="url(#clip2_204_783)">
<g clip-path="url(#clip3_204_783)">
<g clip-path="url(#clip4_204_783)">
<g clip-path="url(#clip5_204_783)">
<g clip-path="url(#clip6_204_783)">
<g clip-path="url(#clip7_204_783)">
<g clip-path="url(#clip8_204_783)">
<path d="M31.003 21.144L20.7392 29.9391V42.5068C20.7392 42.8315 21.0103 43.0918 21.3457 43.0918H27.7602V37.5815C27.7602 37.2568 28.0293 36.9947 28.3646 36.9947H33.6354C33.9708 36.9947 34.2398 37.2568 34.2398 37.5815V43.0918H40.6564C40.9918 43.0918 41.2609 42.8315 41.2609 42.5068V29.9353L31.003 21.144ZM33.9713 33.4123H28.2378V29.9979H33.9713V33.4123Z" fill="#B1411D"/>
<path d="M20.7392 18.1284H24.4294L24.3972 20.2434L20.7391 23.4415L20.7392 18.1284Z" fill="#B1411D"/>
<path d="M30.9434 16.9578L16.3865 29.4315L17.9198 31.1057L31.0029 19.8939L44.0831 31.1057L45.6136 29.4315L31.0596 16.9578L31 16.9082L30.9434 16.9578Z" fill="#B1411D"/>
</g>
</g>
<path d="M7.34789 42.5882L9.70987 41.7366L10.0978 42.744L4.22929 44.8601L3.84135 43.8527L6.38999 42.9336L5.22018 39.8953L2.67154 40.8144L2.28448 39.8089L8.15301 37.6929L8.54006 38.6983L6.17831 39.5499L7.34789 42.5882ZM14.4221 47.4021C14.8603 47.85 15.1599 48.3315 15.3209 48.8469C15.4796 49.362 15.4841 49.8782 15.3339 50.3953C15.1838 50.9145 14.8793 51.3842 14.4208 51.8044C13.956 52.2304 13.4471 52.5101 12.8945 52.6429C12.344 52.776 11.7955 52.7565 11.2495 52.5846C10.7034 52.4106 10.205 52.0937 9.7546 51.6334C9.45744 51.3298 9.22406 50.9968 9.05466 50.6349C8.88416 50.2738 8.78718 49.8996 8.76371 49.5122C8.73913 49.1259 8.81419 48.7324 8.98934 48.3321C9.16338 47.9308 9.43796 47.5581 9.81261 47.2144C10.2796 46.7863 10.7878 46.5084 11.3374 46.3804C11.8867 46.2544 12.4277 46.2797 12.96 46.4565C13.4925 46.635 13.9799 46.9504 14.4221 47.4021ZM14.0255 48.5385C13.9219 48.36 13.7977 48.1967 13.6526 48.0486C13.5076 47.9004 13.3473 47.7731 13.1719 47.6664C12.9974 47.5607 12.8065 47.4799 12.5995 47.424C12.3945 47.3681 12.1852 47.3454 11.972 47.3561C11.761 47.3668 11.5406 47.4221 11.3115 47.5219C11.0832 47.6209 10.8657 47.7651 10.6591 47.9548C10.1665 48.4065 9.91513 48.9169 9.90561 49.4863C9.89587 50.0556 10.1071 50.5611 10.5393 51.0026C10.7189 51.186 10.924 51.3354 11.1545 51.4504C11.3861 51.5666 11.6339 51.6422 11.8978 51.6776C12.1629 51.7119 12.4436 51.6778 12.7397 51.5756C13.0357 51.4734 13.3172 51.2998 13.584 51.0553C13.8014 50.856 13.9697 50.6428 14.0888 50.4156C14.2091 50.1874 14.2788 49.9682 14.2983 49.7576C14.3178 49.545 14.303 49.3335 14.2534 49.1233C14.204 48.9109 14.128 48.7159 14.0255 48.5385ZM16.8352 56.724L19.6024 51.2869L20.5971 51.7611L18.2796 56.3143L21.1263 57.6714L20.6766 58.5551L16.8352 56.724ZM25.5655 59.7088L26.84 53.775L27.9277 53.9938L26.6531 59.9276L25.5655 59.7088ZM34.2661 54.7181L33.1313 54.8406L33.5996 58.8973L34.4023 58.8105C34.6031 58.7889 34.7692 58.7679 34.9005 58.7481C35.0302 58.7284 35.2003 58.6899 35.4104 58.6326C35.619 58.5756 35.7955 58.5084 35.9394 58.431C36.082 58.3551 36.2277 58.2469 36.3763 58.1059C36.5233 57.9651 36.6411 57.8014 36.7292 57.6152C36.8916 57.2715 36.9476 56.8834 36.8978 56.4506C36.8692 56.2022 36.8067 55.977 36.7106 55.7747C36.6148 55.5739 36.4992 55.4083 36.3637 55.2778C36.2299 55.1486 36.0769 55.0386 35.9049 54.9482C35.7341 54.8589 35.5634 54.7933 35.3923 54.7515C35.2226 54.7095 35.0499 54.6866 34.8743 54.6825C34.7253 54.6784 34.5227 54.6904 34.2661 54.7181ZM31.9138 53.9769L34.1219 53.7381C34.5134 53.6959 34.8774 53.6867 35.2142 53.7105C35.551 53.7345 35.8446 53.7838 36.0953 53.8588C36.3475 53.9349 36.5751 54.0354 36.778 54.1599C36.9821 54.2829 37.1531 54.4202 37.291 54.5721C37.4301 54.7224 37.5496 54.8897 37.6495 55.0742C37.7494 55.2574 37.8244 55.4396 37.8751 55.6209C37.9274 55.8034 37.9648 55.9933 37.9878 56.1904C38.018 56.4514 38.0257 56.7049 38.0109 56.9509C37.9947 57.1969 37.9453 57.4509 37.8627 57.7125C37.7804 57.9756 37.6641 58.2159 37.514 58.4334C37.3625 58.6509 37.1566 58.8549 36.8966 59.0451C36.6365 59.2341 36.3311 59.3865 35.9806 59.502C35.8004 59.5618 35.5995 59.6143 35.3776 59.6597C35.1558 59.7051 34.9724 59.7373 34.8276 59.7559C34.6844 59.7744 34.4822 59.7975 34.2211 59.8258L32.6089 60L31.9138 53.9769ZM43.0464 57.5835L42.2041 51.1157L43.2707 50.5485L48.4574 54.7056L47.4566 55.2379L46.054 54.1731L43.8121 55.3654L43.989 57.0821L43.0464 57.5835ZM43.6591 54.3227L45.2224 53.4913L43.3245 51.9371L43.6591 54.3227ZM47.9154 48.4219L47.1514 47.7645L50.813 43.7796L51.3174 44.2136L52.0408 50.0749L54.8084 47.0631L55.5726 47.7206L51.7448 51.8863L51.2337 51.4466L50.4552 45.6583L47.9154 48.4219ZM59.7563 39.4446L58.0187 43.3489L52.2667 40.9513L54.0044 37.047L54.9435 37.4385L53.6462 40.3534L55.0261 40.9286L56.228 38.2281L57.1671 38.6194L55.9652 41.3201L57.5201 41.9681L58.8174 39.0531L59.7563 39.4446Z" fill="#B1411D"/>
<path d="M4.40378 18.2068L2.06594 17.3666L2.44812 16.3708L8.25663 18.4586L7.87445 19.4544L5.35194 18.5477L4.19763 21.555L6.72036 22.4616L6.33729 23.4596L0.528778 21.3716L0.911628 20.3739L3.24969 21.2143L4.40378 18.2068ZM8.38329 8.92843C8.81685 8.48421 9.29248 8.17157 9.80996 7.99071C10.3263 7.80879 10.8535 7.776 11.3912 7.89257C11.9279 8.00786 12.4233 8.27293 12.8767 8.68779C13.338 9.10929 13.652 9.57986 13.8187 10.0993C13.9852 10.6189 13.995 11.1444 13.8479 11.6756C13.7018 12.2079 13.4064 12.7018 12.9618 13.1576C12.6679 13.4584 12.3411 13.6999 11.9811 13.8814C11.6212 14.0631 11.2446 14.1765 10.8516 14.2217C10.4572 14.2659 10.0513 14.2159 9.63392 14.0719C9.2152 13.9271 8.81995 13.6845 8.44773 13.3442C7.9845 12.9208 7.67251 12.4502 7.51219 11.9325C7.35188 11.4148 7.34811 10.8966 7.5009 10.3783C7.65258 9.85907 7.94664 9.37586 8.38329 8.92843ZM9.56661 9.24429C9.39146 9.35314 9.23181 9.48128 9.0881 9.6285C8.94417 9.77593 8.82261 9.93579 8.72341 10.1083C8.62509 10.2816 8.55291 10.4681 8.50663 10.6671C8.46124 10.8675 8.44994 11.0694 8.47275 11.2727C8.49445 11.475 8.56265 11.6826 8.67735 11.8956C8.79116 12.1076 8.95037 12.3073 9.15541 12.4946C9.64433 12.9416 10.1797 13.1539 10.7614 13.1319C11.342 13.1087 11.8455 12.8788 12.272 12.4419C12.4505 12.2591 12.592 12.0546 12.6972 11.8286C12.803 11.6014 12.867 11.3604 12.8887 11.1051C12.9082 10.8501 12.8577 10.584 12.7368 10.3065C12.6159 10.029 12.4235 9.76971 12.1595 9.52864C11.9441 9.3315 11.7169 9.18171 11.478 9.07928C11.2402 8.97793 11.0125 8.92393 10.7953 8.91793C10.5781 8.90979 10.3626 8.93486 10.1494 8.99336C9.93728 9.05271 9.74308 9.13629 9.56661 9.24429ZM18.7291 8.83821L15.9854 3.46179L16.9714 2.99057L19.2694 7.49336L22.0851 6.14764L22.5308 7.02129L18.7291 8.83821ZM26.4443 6.189L25.1842 0.317786L26.259 0.101786L27.5191 5.973L26.4443 6.189ZM34.9605 1.21371L33.8389 1.09157L33.3724 5.10536L34.164 5.1915C34.3635 5.21314 34.5287 5.22836 34.6598 5.23693C34.7911 5.24529 34.9634 5.244 35.177 5.23286C35.3918 5.22321 35.5776 5.196 35.7344 5.15121C35.8894 5.10771 36.0546 5.03379 36.2299 4.92943C36.4038 4.82614 36.5543 4.69307 36.6816 4.53021C36.915 4.23386 37.0567 3.8715 37.1066 3.44293C37.1351 3.19757 37.1263 2.96743 37.0798 2.7525C37.0322 2.53757 36.9584 2.3535 36.859 2.2005C36.7583 2.04579 36.6349 1.90671 36.4888 1.78307C36.3444 1.65964 36.1949 1.56 36.0404 1.48436C35.8845 1.40829 35.7226 1.34979 35.5552 1.30864C35.4124 1.27286 35.214 1.24136 34.9605 1.21371ZM32.8591 0L35.0428 0.237857C35.4299 0.279857 35.7835 0.347786 36.1037 0.441643C36.4237 0.536786 36.6958 0.647571 36.9201 0.774C37.146 0.900643 37.343 1.04486 37.5111 1.20686C37.6792 1.37036 37.8134 1.53943 37.9132 1.71407C38.0131 1.88871 38.0901 2.07536 38.1444 2.27379C38.1984 2.472 38.2303 2.66443 38.2398 2.85086C38.2478 3.03707 38.2405 3.228 38.2177 3.42386C38.1878 3.68207 38.1375 3.92807 38.0673 4.16186C37.9956 4.39543 37.8904 4.63029 37.7516 4.86664C37.6143 5.10171 37.4478 5.30829 37.2518 5.48679C37.0574 5.66529 36.8132 5.81829 36.5193 5.94579C36.2253 6.07457 35.8958 6.15729 35.5307 6.19371C35.3442 6.21364 35.1385 6.22136 34.9133 6.21707C34.6895 6.21429 34.5057 6.20636 34.3615 6.1935C34.2191 6.18086 34.0187 6.1605 33.7608 6.13243L32.1663 5.95886L32.8591 0ZM40.9999 7.89857L46.14 3.79179L47.1926 4.35257L46.3525 10.7501L45.3619 10.2223L45.5372 8.52386L43.3214 7.34336L41.9324 8.39529L40.9999 7.89857ZM44.1405 6.66729L45.6876 7.49143L46.0246 5.13129L44.1405 6.66729ZM52.5096 9.48878L53.266 8.83907L56.8839 12.7845L56.3857 13.2122L50.3484 13.2171L53.0835 16.1998L52.3269 16.8493L48.5433 12.723L49.0482 12.2895L55.0184 12.2246L52.5096 9.48878ZM55.7763 24.012L54.0627 20.1444L59.7576 17.7812L61.4712 21.6489L60.5419 22.0346L59.2634 19.1492L57.8965 19.7162L59.0809 22.3892L58.1514 22.7749L56.9669 20.1019L55.4273 20.7409L56.7059 23.6263L55.7763 24.012Z" fill="#B1411D"/>
<path d="M0.573486 30.8968C0.573486 29.6181 1.64454 28.5816 2.9658 28.5814C4.28706 28.5814 5.35811 29.6179 5.35811 30.8968C5.35811 32.1754 4.28706 33.2119 2.9658 33.2119C1.64454 33.2119 0.573486 32.1754 0.573486 30.8968ZM56.3416 30.8968C56.3416 29.6181 57.4127 28.5816 58.7339 28.5814C60.0552 28.5814 61.1262 29.6179 61.1265 30.8968C61.1265 32.1754 60.0554 33.2119 58.7339 33.2119C57.4127 33.2119 56.3416 32.1754 56.3416 30.8968Z" fill="#B1411D"/>
</g>
</g>
</g>
</g>
</g>
</g>
</g>
<defs>
<clipPath id="clip0_204_783">
<rect width="62" height="60" fill="white"/>
</clipPath>
<clipPath id="clip1_204_783">
<rect width="62" height="60" fill="white"/>
</clipPath>
<clipPath id="clip2_204_783">
<rect width="62" height="60" fill="white"/>
</clipPath>
<clipPath id="clip3_204_783">
<rect width="62" height="60" fill="white"/>
</clipPath>
<clipPath id="clip4_204_783">
<rect width="62" height="60" fill="white"/>
</clipPath>
<clipPath id="clip5_204_783">
<rect width="62" height="60" fill="white"/>
</clipPath>
<clipPath id="clip6_204_783">
<rect width="62" height="60" fill="white"/>
</clipPath>
<clipPath id="clip7_204_783">
<rect width="29.2271" height="26.1836" fill="white" transform="translate(16.3865 16.9082)"/>
</clipPath>
<clipPath id="clip8_204_783">
<rect width="29.2271" height="26.1836" fill="white" transform="translate(16.3865 16.9082)"/>
</clipPath>
</defs>
</svg>
